<?xml version="1.0" encoding="UTF-8"?>
<svg id="Camada_2" data-name="Camada 2" xmlns="http://www.w3.org/2000/svg" viewBox="0 0 1613.36 679.09">
  <defs>
    <style>
      .cls-1 {
        fill: #fff;
      }
    </style>
  </defs>
  <g id="Camada_1-2" data-name="Camada 1">
    <g>
      <g>
        <path class="cls-1" d="M297.92,21.08c66.82,0,115.96,10.43,147.41,31.28,31.45,20.86,47.18,51.21,47.18,91.07,0,9.91-1.1,19.01-3.28,27.3-2.19,8.29-5.01,15.84-8.47,22.64-3.46,6.8-7.38,12.85-11.75,18.15-4.38,5.3-8.87,9.91-13.48,13.82-10.83,9.45-23.04,16.82-36.64,22.12v5.18c21.43,2.54,40.67,8.99,57.72,19.35,7.14,4.38,14.17,9.85,21.08,16.42s13.07,14.52,18.49,23.85c5.41,9.33,9.79,20.17,13.13,32.49,3.34,12.33,5.01,26.44,5.01,42.34,0,24.19-4.38,45.97-13.13,65.32-8.76,19.35-21.77,35.77-39.05,49.25s-38.83,23.79-64.63,30.93c-25.81,7.14-55.76,10.71-89.86,10.71-31.57,0-57.26-1.96-77.07-5.88-19.82-3.92-35.25-9.62-46.31-17.11-11.06-7.48-18.61-16.53-22.64-27.13-4.03-10.6-6.05-22.58-6.05-35.94V79.15c0-12.67-8.76-19.01-26.27-19.01-12.67,0-25.52,1.9-38.54,5.7-13.02,3.8-24.77,8.99-35.25,15.55-10.49,6.57-19.07,14.4-25.75,23.5-6.69,9.1-10.02,18.96-10.02,29.55,0,7.38.98,13.25,2.94,17.63,1.96,4.38,4.2,7.66,6.74,9.85,2.53,2.19,5.12,3.58,7.78,4.15,2.65.58,4.55.86,5.7.86,5.76,0,10.48-.98,14.17-2.94,3.68-1.96,7.03-4.03,10.02-6.22,2.99-2.19,5.82-4.26,8.47-6.22,2.65-1.96,5.7-2.94,9.16-2.94,2.76,0,5.7.64,8.81,1.9,3.11,1.27,5.99,3.28,8.64,6.05,2.65,2.76,4.89,6.39,6.74,10.89,1.84,4.49,2.77,9.97,2.77,16.42,0,9.22-1.79,17.17-5.36,23.85-3.58,6.69-8.18,12.27-13.83,16.76-5.65,4.49-12.1,7.84-19.35,10.02-7.26,2.19-14.46,3.28-21.6,3.28-11.06,0-21.03-1.9-29.9-5.7-8.87-3.8-16.42-9.04-22.64-15.73-6.22-6.68-10.95-14.52-14.17-23.5-3.23-8.99-4.84-18.54-4.84-28.69,0-19.12,3.57-36,10.71-50.63,7.14-14.63,17.22-27.24,30.24-37.85,13.01-10.6,28.63-19.41,46.83-26.44,18.2-7.03,38.36-12.62,60.48-16.76,22.12-4.15,45.79-7.08,71.03-8.81,25.23-1.73,51.44-2.59,78.63-2.59ZM291.01,476.27c0,5.3.52,10.31,1.55,15.03,1.04,4.73,3.11,8.81,6.22,12.27,3.11,3.46,7.37,6.22,12.79,8.29,5.41,2.07,12.5,3.11,21.25,3.11,12.67,0,24.31-3.63,34.91-10.89,10.6-7.26,19.7-16.59,27.3-28s13.48-24.19,17.63-38.36c4.15-14.17,6.22-28.28,6.22-42.34,0-20.96-2.82-39.46-8.47-55.47-5.65-16.01-13.54-29.55-23.67-40.61-10.14-11.06-22.12-19.64-35.94-25.75-13.83-6.1-28.81-9.62-44.93-10.54l6.91-17.63c10.14.46,19.81-.92,29.03-4.15,9.21-3.22,17.33-8.87,24.37-16.94,7.03-8.06,12.62-18.95,16.76-32.66,4.15-13.71,6.22-30.93,6.22-51.67,0-14.05-1.73-26.73-5.18-38.02-3.46-11.29-8.01-20.79-13.65-28.51-5.65-7.72-12.22-13.65-19.7-17.8-7.49-4.15-15.15-6.22-22.98-6.22-4.84,0-9.5.58-14,1.73-4.49,1.16-8.41,3.11-11.75,5.88-3.34,2.77-5.99,6.39-7.95,10.89-1.96,4.49-2.94,10.08-2.94,16.76v391.59Z"/>
        <path class="cls-1" d="M688.13,379.15c0,7.38,1.09,15.38,3.28,24.02,2.19,8.64,5.36,17.34,9.5,26.09,4.15,8.76,9.27,17.11,15.38,25.06,6.1,7.95,13.13,15.04,21.08,21.26,7.95,6.22,16.76,11.18,26.44,14.86,9.68,3.69,20.27,5.53,31.8,5.53,8.06,0,15.55-.92,22.47-2.76,6.91-1.84,13.36-4.37,19.35-7.6,5.99-3.22,11.75-6.97,17.28-11.23,5.53-4.26,11.06-8.81,16.59-13.65l8.64,8.29c-5.3,7.14-12.1,14.98-20.39,23.5-8.29,8.53-18.32,16.54-30.07,24.02-11.75,7.49-25.46,13.71-41.13,18.66-15.67,4.95-33.53,7.43-53.57,7.43s-39.57-3.63-58.58-10.89c-19.01-7.26-35.89-18.14-50.63-32.66-14.75-14.52-26.56-32.6-35.43-54.26-8.87-21.66-13.31-47-13.31-76.04,0-20.96,2.65-40.21,7.95-57.72,5.3-17.51,12.5-33.29,21.6-47.35,9.1-14.05,19.7-26.38,31.8-36.98,12.1-10.6,24.83-19.41,38.19-26.44,13.36-7.03,27.01-12.32,40.96-15.9,13.94-3.57,27.36-5.36,40.26-5.36,17.05,0,31.91,1.85,44.58,5.53,12.67,3.69,23.21,8.64,31.62,14.86,8.41,6.22,14.69,13.42,18.84,21.6,4.15,8.18,6.22,16.76,6.22,25.75,0,10.83-3.11,20.56-9.33,29.21s-14.52,16.19-24.88,22.64l-136.52,80.53ZM757.6,308.98c2.99-1.84,5.47-3.63,7.43-5.36,1.95-1.73,3.51-3.8,4.67-6.22,1.15-2.42,2.01-5.41,2.59-8.99.57-3.57.86-8,.86-13.31,0-5.76-.64-12.15-1.9-19.18-1.27-7.03-3.4-13.65-6.39-19.87-3-6.22-6.8-11.41-11.41-15.55-4.61-4.15-10.14-6.22-16.59-6.22-8.29,0-15.38,2.48-21.25,7.43-5.88,4.96-10.71,11.35-14.52,19.18-3.8,7.84-6.8,16.76-8.99,26.79-2.19,10.02-3.86,20.11-5.01,30.24-1.16,10.14-1.85,19.87-2.07,29.21-.23,9.33-.35,17.23-.35,23.67l72.93-41.82Z"/>
        <path class="cls-1" d="M1026.49,507.37c0,3-.52,6.57-1.55,10.71-1.04,4.15-3.46,8.07-7.26,11.75-3.8,3.69-9.33,6.86-16.59,9.5-7.26,2.65-17,3.97-29.21,3.97s-21.77-1.44-28.69-4.32c-6.91-2.88-12.04-6.28-15.38-10.2-3.34-3.92-5.42-7.95-6.22-12.1-.81-4.15-1.21-7.48-1.21-10.02V60.83c0-6.68-1.55-12.5-4.67-17.45-3.11-4.95-8.35-7.43-15.73-7.43-3.92,0-7.32.64-10.2,1.9-2.88,1.27-5.94,3.17-9.16,5.7l-6.91-8.29c5.3-4.37,11.17-8.69,17.63-12.96,6.45-4.26,13.53-8,21.26-11.23,7.72-3.22,15.95-5.88,24.71-7.95,8.75-2.07,17.97-3.11,27.65-3.11,14.98,0,26.61,2.02,34.91,6.05,8.29,4.03,14.4,8.99,18.32,14.86,3.92,5.88,6.28,12.1,7.09,18.66.8,6.57,1.21,12.39,1.21,17.45v450.34Z"/>
        <path class="cls-1" d="M1220.39,507.37c0,3-.52,6.57-1.55,10.71-1.04,4.15-3.46,8.07-7.26,11.75-3.8,3.69-9.33,6.86-16.59,9.5-7.26,2.65-17,3.97-29.21,3.97s-21.77-1.44-28.69-4.32c-6.91-2.88-12.04-6.28-15.38-10.2-3.34-3.92-5.42-7.95-6.22-12.1-.81-4.15-1.21-7.48-1.21-10.02V60.83c0-6.68-1.55-12.5-4.67-17.45-3.11-4.95-8.35-7.43-15.73-7.43-3.92,0-7.32.64-10.2,1.9-2.88,1.27-5.94,3.17-9.16,5.7l-6.91-8.29c5.3-4.37,11.17-8.69,17.63-12.96,6.45-4.26,13.53-8,21.26-11.23,7.72-3.22,15.95-5.88,24.71-7.95,8.75-2.07,17.97-3.11,27.65-3.11,14.98,0,26.61,2.02,34.91,6.05,8.29,4.03,14.4,8.99,18.32,14.86,3.92,5.88,6.28,12.1,7.09,18.66.8,6.57,1.21,12.39,1.21,17.45v450.34Z"/>
        <path class="cls-1" d="M1408.06,207.37c-7.84,0-15.09.92-21.77,2.76-6.69,1.85-12.44,4.15-17.28,6.91-4.84,2.77-8.64,5.82-11.41,9.16-2.76,3.34-4.15,6.51-4.15,9.5,0,3.46,1.78,5.94,5.36,7.43,3.57,1.5,7.54,3.23,11.92,5.18,4.37,1.96,8.35,4.73,11.92,8.29,3.57,3.57,5.36,9.05,5.36,16.42,0,4.84-.98,9.28-2.94,13.31-1.96,4.04-4.61,7.6-7.95,10.71-3.34,3.11-7.26,5.53-11.75,7.26s-9.16,2.59-14,2.59c-12.91,0-23.33-4.37-31.28-13.13-7.95-8.75-11.92-20.39-11.92-34.91s3.68-26.09,11.06-36.12c7.37-10.02,16.99-18.26,28.86-24.71,11.87-6.45,25.29-11.23,40.27-14.34,14.97-3.11,29.95-4.67,44.93-4.67,17.97,0,35.13,1.96,51.5,5.88,16.36,3.92,30.81,10.14,43.38,18.66,12.56,8.53,22.58,19.35,30.07,32.49,7.49,13.13,11.23,29.03,11.23,47.7v195.28c0,2.07.11,4.38.35,6.91.23,2.54.8,4.84,1.73,6.91.92,2.07,2.3,3.8,4.15,5.18,1.84,1.38,4.49,2.07,7.95,2.07,4.15,0,8-1.55,11.58-4.67,3.57-3.11,6.74-6.27,9.5-9.5l8.64,7.26c-3.46,4.84-7.6,10.14-12.44,15.9-4.84,5.76-10.71,11.18-17.63,16.24-6.91,5.07-14.98,9.33-24.19,12.79-9.22,3.46-19.7,5.18-31.45,5.18-14.52,0-27.42-4.32-38.71-12.96-11.29-8.64-18.66-21.95-22.12-39.92-7.38,9.91-15.03,18.2-22.98,24.88-7.95,6.69-16.07,12.1-24.37,16.25s-16.65,7.14-25.06,8.99c-8.41,1.84-16.88,2.77-25.4,2.77-11.06,0-21.77-1.73-32.14-5.18-10.37-3.46-19.65-8.93-27.82-16.42-8.18-7.49-14.75-17.22-19.7-29.21-4.96-11.98-7.43-26.61-7.43-43.89,0-20.96,4.15-38.13,12.44-51.5,8.29-13.36,19.18-24.59,32.66-33.7,13.48-9.1,28.8-16.88,45.97-23.33,17.16-6.45,34.74-13.25,52.71-20.39,13.36-5.3,23.1-13.19,29.2-23.68,6.1-10.48,9.16-21.26,9.16-32.32,0-17.05-5.01-30.7-15.03-40.96-10.02-10.25-23.67-15.38-40.96-15.38ZM1463.01,358.75c0-5.76-1.85-10.14-5.53-13.13-3.69-2.99-8.41-4.49-14.17-4.49-8.07,0-15.73,1.85-22.98,5.53-7.26,3.69-13.65,9.1-19.18,16.24-5.53,7.14-9.91,15.96-13.13,26.44-3.23,10.49-4.84,22.64-4.84,36.46s.98,24.43,2.94,33.18c1.96,8.76,4.61,15.73,7.95,20.91,3.34,5.18,7.2,8.81,11.58,10.89,4.38,2.07,8.99,3.11,13.83,3.11,5.99,0,11.63-1.56,16.94-4.67,5.3-3.11,9.9-7.08,13.82-11.92,3.92-4.84,7.03-10.25,9.33-16.24,2.3-5.99,3.46-11.98,3.46-17.97v-84.33Z"/>
      </g>
      <circle class="cls-1" cx="973.41" cy="626.09" r="53"/>
      <circle class="cls-1" cx="1167.41" cy="626.09" r="53"/>
    </g>
  </g>
</svg>
